<svg xmlns="http://www.w3.org/2000/svg" xmlns:xlink="http://www.w3.org/1999/xlink" viewBox="0 0 1200 500" font-family="&#x27;Noto Sans CJK KR&#x27;, &#x27;Malgun Gothic&#x27;, sans-serif"><defs><marker id="arrow-2563eb" markerWidth="8" markerHeight="8" refX="7" refY="4" orient="auto"><path d="M0 0 L8 4 L0 8Z" fill="#2563eb"/></marker><marker id="arrow-0f766e" markerWidth="8" markerHeight="8" refX="7" refY="4" orient="auto"><path d="M0 0 L8 4 L0 8Z" fill="#0f766e"/></marker><marker id="arrow-ea580c" markerWidth="8" markerHeight="8" refX="7" refY="4" orient="auto"><path d="M0 0 L8 4 L0 8Z" fill="#ea580c"/></marker><marker id="arrow-64748b" markerWidth="8" markerHeight="8" refX="7" refY="4" orient="auto"><path d="M0 0 L8 4 L0 8Z" fill="#64748b"/></marker></defs><rect width="1200" height="500" fill="white"/><rect x="40" y="35" width="330" height="430" rx="14" fill="#f8fafc" stroke="#cbd5e1" stroke-width="2"/><text x="205.0" y="83" font-size="30" fill="#2563eb" text-anchor="middle" font-weight="700">Forward</text><text x="205.0" y="153" font-size="27" fill="#17243b" text-anchor="middle" font-weight="400">x = 2, w = 1, b = 0</text><text x="205.0" y="205" font-size="27" fill="#17243b" text-anchor="middle" font-weight="400">ŷ = wx + b = 2</text><text x="205.0" y="257" font-size="27" fill="#17243b" text-anchor="middle" font-weight="400">y = 4</text><text x="205.0" y="309" font-size="27" fill="#17243b" text-anchor="middle" font-weight="400">L = (ŷ − y)² = 4</text><rect x="435" y="35" width="330" height="430" rx="14" fill="#f8fafc" stroke="#cbd5e1" stroke-width="2"/><text x="600.0" y="83" font-size="30" fill="#2563eb" text-anchor="middle" font-weight="700">Backward</text><text x="600.0" y="153" font-size="27" fill="#17243b" text-anchor="middle" font-weight="400">∂L/∂ŷ = 2(ŷ − y) = −4</text><text x="600.0" y="205" font-size="27" fill="#17243b" text-anchor="middle" font-weight="400">∂ŷ/∂w = x = 2</text><text x="600.0" y="257" font-size="27" fill="#17243b" text-anchor="middle" font-weight="400">∂L/∂w = −4 × 2 = −8</text><text x="600.0" y="309" font-size="27" fill="#17243b" text-anchor="middle" font-weight="400">∂L/∂b = −4</text><rect x="830" y="35" width="330" height="430" rx="14" fill="#f8fafc" stroke="#cbd5e1" stroke-width="2"/><text x="995.0" y="83" font-size="30" fill="#0f766e" text-anchor="middle" font-weight="700">SGD, η = 0.1</text><text x="995.0" y="153" font-size="27" fill="#17243b" text-anchor="middle" font-weight="400">w′ = 1 − 0.1 × (−8)</text><text x="995.0" y="205" font-size="27" fill="#17243b" text-anchor="middle" font-weight="400">= 1.8</text><text x="995.0" y="257" font-size="27" fill="#17243b" text-anchor="middle" font-weight="400">b′ = 0.4</text><text x="995.0" y="309" font-size="27" fill="#17243b" text-anchor="middle" font-weight="400">ŷ′ = 1.8 × 2 + 0.4 = 4</text><path d="M375 245 L425 245" stroke="#2563eb" stroke-width="4" fill="none" marker-end="url(#arrow-2563eb)"/><path d="M770 245 L820 245" stroke="#2563eb" stroke-width="4" fill="none" marker-end="url(#arrow-2563eb)"/></svg>
