<svg xmlns="http://www.w3.org/2000/svg" xmlns:xlink="http://www.w3.org/1999/xlink" viewBox="0 0 1200 500" font-family="&#x27;Noto Sans CJK KR&#x27;, &#x27;Malgun Gothic&#x27;, sans-serif"><defs><marker id="arrow-275879" markerWidth="8" markerHeight="8" refX="7" refY="4" orient="auto"><path d="M0 0 L8 4 L0 8Z" fill="#275879"/></marker><marker id="arrow-36756f" markerWidth="8" markerHeight="8" refX="7" refY="4" orient="auto"><path d="M0 0 L8 4 L0 8Z" fill="#36756f"/></marker><marker id="arrow-b2773d" markerWidth="8" markerHeight="8" refX="7" refY="4" orient="auto"><path d="M0 0 L8 4 L0 8Z" fill="#b2773d"/></marker><marker id="arrow-64748b" markerWidth="8" markerHeight="8" refX="7" refY="4" orient="auto"><path d="M0 0 L8 4 L0 8Z" fill="#64748b"/></marker></defs><rect width="1200" height="500" fill="white"/><rect x="35" y="70" width="330" height="350" rx="4" fill="#f8fafc" stroke="#cbd5e1" stroke-width="2"/><text x="200.0" y="118" font-size="30" fill="#275879" text-anchor="middle" font-weight="700">이미 배운 모델</text><text x="200.0" y="188" font-size="27" fill="#17243b" text-anchor="middle" font-weight="400">여러 이미지로 학습</text><text x="200.0" y="240" font-size="27" fill="#17243b" text-anchor="middle" font-weight="400">기본적인 특징 계산</text><rect x="435" y="70" width="330" height="350" rx="4" fill="#f8fafc" stroke="#cbd5e1" stroke-width="2"/><text x="600.0" y="118" font-size="30" fill="#275879" text-anchor="middle" font-weight="700">내 사진 + 정답</text><text x="600.0" y="188" font-size="27" fill="#17243b" text-anchor="middle" font-weight="400">새 Task의 Label</text><text x="600.0" y="240" font-size="27" fill="#17243b" text-anchor="middle" font-weight="400">내 조건으로 추가 학습</text><rect x="835" y="70" width="330" height="350" rx="4" fill="#f8fafc" stroke="#cbd5e1" stroke-width="2"/><text x="1000.0" y="118" font-size="30" fill="#36756f" text-anchor="middle" font-weight="700">내 Task에 맞춘 모델</text><text x="1000.0" y="188" font-size="27" fill="#17243b" text-anchor="middle" font-weight="400">새 조건에서 평가</text><text x="1000.0" y="240" font-size="27" fill="#17243b" text-anchor="middle" font-weight="400">필요하면 더 학습</text><path d="M375 245 L425 245" stroke="#275879" stroke-width="2.5" fill="none" marker-end="url(#arrow-275879)"/><path d="M775 245 L825 245" stroke="#275879" stroke-width="2.5" fill="none" marker-end="url(#arrow-275879)"/></svg>
