<svg xmlns="http://www.w3.org/2000/svg" xmlns:xlink="http://www.w3.org/1999/xlink" viewBox="0 0 1200 500" font-family="&#x27;Noto Sans CJK KR&#x27;, &#x27;Malgun Gothic&#x27;, sans-serif"><defs><marker id="arrow-2563eb" markerWidth="8" markerHeight="8" refX="7" refY="4" orient="auto"><path d="M0 0 L8 4 L0 8Z" fill="#2563eb"/></marker><marker id="arrow-0f766e" markerWidth="8" markerHeight="8" refX="7" refY="4" orient="auto"><path d="M0 0 L8 4 L0 8Z" fill="#0f766e"/></marker><marker id="arrow-ea580c" markerWidth="8" markerHeight="8" refX="7" refY="4" orient="auto"><path d="M0 0 L8 4 L0 8Z" fill="#ea580c"/></marker><marker id="arrow-64748b" markerWidth="8" markerHeight="8" refX="7" refY="4" orient="auto"><path d="M0 0 L8 4 L0 8Z" fill="#64748b"/></marker></defs><rect width="1200" height="500" fill="white"/><rect x="30" y="60" width="200" height="260" rx="14" fill="#f8fafc" stroke="#cbd5e1" stroke-width="2"/><text x="130.0" y="108" font-size="30" fill="#2563eb" text-anchor="middle" font-weight="700">Data</text><text x="130.0" y="178" font-size="27" fill="#17243b" text-anchor="middle" font-weight="400">사진·Label</text><text x="130.0" y="230" font-size="27" fill="#17243b" text-anchor="middle" font-weight="400">분리 기준</text><path d="M235 190 L260 190" stroke="#2563eb" stroke-width="4" fill="none" marker-end="url(#arrow-2563eb)"/><rect x="265" y="60" width="200" height="260" rx="14" fill="#f8fafc" stroke="#cbd5e1" stroke-width="2"/><text x="365.0" y="108" font-size="30" fill="#2563eb" text-anchor="middle" font-weight="700">Train</text><text x="365.0" y="178" font-size="27" fill="#17243b" text-anchor="middle" font-weight="400">Weight 학습</text><text x="365.0" y="230" font-size="27" fill="#17243b" text-anchor="middle" font-weight="400">설정 선택</text><path d="M470 190 L495 190" stroke="#2563eb" stroke-width="4" fill="none" marker-end="url(#arrow-2563eb)"/><rect x="500" y="60" width="200" height="260" rx="14" fill="#f8fafc" stroke="#cbd5e1" stroke-width="2"/><text x="600.0" y="108" font-size="30" fill="#2563eb" text-anchor="middle" font-weight="700">Evaluate</text><text x="600.0" y="178" font-size="27" fill="#17243b" text-anchor="middle" font-weight="400">최종 Test</text><text x="600.0" y="230" font-size="27" fill="#17243b" text-anchor="middle" font-weight="400">실패 사례</text><path d="M705 190 L730 190" stroke="#2563eb" stroke-width="4" fill="none" marker-end="url(#arrow-2563eb)"/><rect x="735" y="60" width="200" height="260" rx="14" fill="#f8fafc" stroke="#cbd5e1" stroke-width="2"/><text x="835.0" y="108" font-size="30" fill="#2563eb" text-anchor="middle" font-weight="700">Deploy</text><text x="835.0" y="178" font-size="27" fill="#17243b" text-anchor="middle" font-weight="400">추론 시스템</text><text x="835.0" y="230" font-size="27" fill="#17243b" text-anchor="middle" font-weight="400">전처리 일치</text><path d="M940 190 L965 190" stroke="#2563eb" stroke-width="4" fill="none" marker-end="url(#arrow-2563eb)"/><rect x="970" y="60" width="200" height="260" rx="14" fill="#f8fafc" stroke="#cbd5e1" stroke-width="2"/><text x="1070.0" y="108" font-size="30" fill="#2563eb" text-anchor="middle" font-weight="700">Monitor</text><text x="1070.0" y="178" font-size="27" fill="#17243b" text-anchor="middle" font-weight="400">운영 실패</text><text x="1070.0" y="230" font-size="27" fill="#17243b" text-anchor="middle" font-weight="400">새 조건 확인</text><path d="M1070 340 V385 H130 V340" fill="none" stroke="#0f766e" stroke-width="4" marker-end="url(#arrow-0f766e)"/><text x="600" y="450" font-size="29" fill="#0f766e" text-anchor="middle" font-weight="400">운영 실패 사례를 데이터 보강과 재학습에 연결</text></svg>
